<svg xmlns="http://www.w3.org/2000/svg" xmlns:xlink="http://www.w3.org/1999/xlink" viewBox="0 0 268.54 135.41"><defs><style>.cls-1{fill:#231f20;}.cls-2{fill:url(#Orange-Lachs-Pink-Verlauf);}</style><linearGradient id="Orange-Lachs-Pink-Verlauf" x1="2.44" y1="121.23" x2="97.19" y2="26.48" gradientUnits="userSpaceOnUse"><stop offset="0" stop-color="#ff48cf"/><stop offset="0.11" stop-color="#ff58ab"/><stop offset="0.23" stop-color="#ff658d"/><stop offset="0.33" stop-color="#ff6d7b"/><stop offset="0.4" stop-color="#ff7074"/><stop offset="1" stop-color="#ffa200"/></linearGradient></defs><g id="Ebene_3" data-name="Ebene 3"><path class="cls-1" d="M103.91,26.84H109l8.09,25.6V26.84h3.64V62.68h-4.15l-9.06-29.13V62.68h-3.64Z"/><path class="cls-1" d="M126.7,26.84h14.24v3.63H130.69V42.66h8.25V46.3h-8.25V62.68h-4Z"/><path class="cls-1" d="M145.24,26.84h8.19c5.53,0,8.09,2.92,8.09,8.7V54c0,5.78-2.56,8.7-8.09,8.7h-8.19Zm8.09,32.21c2.81,0,4.2-1.39,4.2-4.92V35.34c0-3.54-1.39-4.87-4.2-4.87h-4.1V59.05Z"/><path class="cls-1" d="M167.05,26.84h4V62.68h-4Z"/><path class="cls-1" d="M187.07,55.46H175.45V51.78l11.16-24.94h4.46v25h2.86v3.63h-2.86v7.22h-4Zm0-3.63V33.9l-7.89,17.93Z"/><path class="cls-1" d="M78.62,68.92h8.19c5.53,0,8.09,2.91,8.09,8.7V96.06c0,5.78-2.56,8.7-8.09,8.7H78.62Zm8.09,32.21c2.82,0,4.2-1.39,4.2-4.92V77.42c0-3.54-1.38-4.87-4.2-4.87h-4.1v28.58Z"/><path class="cls-1" d="M110.67,104.76a22.48,22.48,0,0,1-.41-3.48,6.06,6.06,0,0,1-6,4c-3.53,0-5.73-2.45-5.73-6.35s1.74-6.24,6.4-8.45c4.3-1.94,4.86-2.45,4.86-4.2v-.61c0-2.56-1.12-3.84-3.33-3.84s-3.58,1.38-3.58,3.94v.77H99.25V86c0-4.82,2.67-7.48,7.28-7.48,4.91,0,7.11,2.66,7.11,7.78V97.75a32,32,0,0,0,.57,7Zm-.87-8.7V90.88c-.51.67-1.53,1.28-3.73,2.41-2.57,1.28-3.64,2.82-3.64,5.07s1.07,3.53,3.17,3.53C108.22,101.89,109.8,99.74,109.8,96.06Z"/><path class="cls-1" d="M123.68,82.28V99c0,2,.66,2.87,2.51,2.87a5.66,5.66,0,0,0,2.15-.41v3.33a6.51,6.51,0,0,1-2.87.51c-3.84,0-5.68-1.94-5.68-5.89V82.28h-3.18V79h3.33l.41-7.42h3.33V79h4.66v3.28Z"/><path class="cls-1" d="M142.83,104.76a21.26,21.26,0,0,1-.41-3.48,6.06,6.06,0,0,1-6,4c-3.53,0-5.74-2.45-5.74-6.35s1.74-6.24,6.4-8.45C141.4,88.53,142,88,142,86.27v-.61c0-2.56-1.13-3.84-3.33-3.84s-3.58,1.38-3.58,3.94v.77h-3.64V86c0-4.82,2.66-7.48,7.27-7.48,4.92,0,7.12,2.66,7.12,7.78V97.75a32.14,32.14,0,0,0,.56,7Zm-.87-8.7V90.88c-.51.67-1.54,1.28-3.74,2.41-2.56,1.28-3.63,2.82-3.63,5.07s1.07,3.53,3.17,3.53C140.37,101.89,142,99.74,142,96.06Z"/><path class="cls-1" d="M149.59,96.57v-2h3.79v2.3c0,3.23,1.58,4.77,4.15,4.77s4.19-1.54,4.19-4.82-1.38-5.42-5.53-8.86c-5-4.09-6.6-7-6.6-11,0-5.37,2.87-8.55,8-8.55s7.88,3.18,7.88,8.66v1.43h-3.79V76.8c0-3.23-1.48-4.76-4.09-4.76s-4.1,1.53-4.1,4.66c0,3,1.43,5,5.68,8.5,4.92,4.1,6.51,7,6.51,11.32,0,5.58-2.92,8.75-8.14,8.75S149.59,102.1,149.59,96.57Z"/><path class="cls-1" d="M169,97V86.68c0-5.27,2.61-8.19,7.52-8.19s7.38,3.07,7.38,8.19v1.13h-3.74V86.33c0-2.87-1.08-4.41-3.64-4.41s-3.63,1.54-3.63,4.41V97.39c0,2.86,1.07,4.45,3.63,4.45s3.64-1.59,3.64-4.45v-2h3.74V97c0,5.12-2.41,8.24-7.38,8.24S169,102.3,169,97Z"/><path class="cls-1" d="M187.89,69.79h3.84v5.53h-3.84Zm0,9.21h3.84v25.76h-3.84Z"/><path class="cls-1" d="M211.39,86.79v5.68H200v4.81c0,3.13,1.28,4.56,3.78,4.56s3.85-1.43,3.85-4.56v-.76h3.73v.41c0,5.32-2.71,8.34-7.63,8.34s-7.63-3-7.63-8.34V86.79c0-5.33,2.67-8.3,7.63-8.3S211.39,81.46,211.39,86.79ZM207.6,89.3V86.43c0-3.07-1.38-4.51-3.84-4.51S200,83.36,200,86.43V89.3Z"/><path class="cls-1" d="M230.6,85.92v18.84h-3.9V86.43c0-3-1-4.51-3.22-4.51s-4,1.9-4,5.74v17.1h-3.84V79h3.33l.05,3.38a6,6,0,0,1,5.69-3.89C228.45,78.49,230.6,80.8,230.6,85.92Z"/><path class="cls-1" d="M234.79,97V86.68c0-5.27,2.62-8.19,7.53-8.19s7.38,3.07,7.38,8.19v1.13H246V86.33c0-2.87-1.08-4.41-3.64-4.41s-3.63,1.54-3.63,4.41V97.39c0,2.86,1.07,4.45,3.63,4.45s3.64-1.59,3.64-4.45v-2h3.74V97c0,5.12-2.41,8.24-7.38,8.24S234.79,102.3,234.79,97Z"/><path class="cls-1" d="M268.54,86.79v5.68H257.17v4.81c0,3.13,1.28,4.56,3.79,4.56s3.84-1.43,3.84-4.56v-.76h3.74v.41c0,5.32-2.71,8.34-7.63,8.34s-7.63-3-7.63-8.34V86.79c0-5.33,2.66-8.3,7.63-8.3S268.54,81.46,268.54,86.79Zm-3.79,2.51V86.43c0-3.07-1.38-4.51-3.84-4.51s-3.74,1.44-3.74,4.51V89.3Z"/><path class="cls-2" d="M93.56,116.92c-.5-.14-1-.28-1.51-.38a49.48,49.48,0,0,1-12.71-4.23,62.52,62.52,0,0,1-14.19-9.71,52,52,0,0,1-4.55-4.84,19.31,19.31,0,0,1-4.18-8,8.76,8.76,0,0,1-.53-4.29l0-.62c0-3.82,0-4.45,0-8.27a1,1,0,0,1,.27-.64q1.61-1.65,3.24-3.27c.61-.62,1.23-1.22,1.83-1.8a5.61,5.61,0,0,0,6.35.23,5.33,5.33,0,0,0,2.62-5.88,5.55,5.55,0,0,0-4.92-4.72,3.83,3.83,0,0,0-1.39,0,7.39,7.39,0,0,0-.75.21,5.7,5.7,0,0,0-3.86,7.49.64.64,0,0,1-.19.79c-1.92,1.9-3.82,3.81-5.73,5.71a.88.88,0,0,0-.28.68c0,5.09,0,2.91,0,8v1c.06,3.23.1,7.07.14,10.23l-.92-2.75a36.87,36.87,0,0,1-.5-5.74l0-19.13c3-3,6.11-6.14,9.11-9.13.1-.1.23-.29.35-.29.83,0,7.15.06,8,.06s1.69-.05,2.53-.06h2.06c.72,0,1.44.08,2.15.05a1.66,1.66,0,0,0,1-.34c.58-.49,1.09-1.06,1.63-1.6q2.06-2.09,4.1-4.18c.17-.18.29-.16.48,0a4,4,0,0,0,1,.53,5.73,5.73,0,0,0,7.57-6.83,5.7,5.7,0,1,0-10.84,3.5c.12.32.25.58-.07.89-1,.95-1.93,1.93-2.9,2.89-.7.69-1.42,1.36-2.1,2.07a1,1,0,0,1-.8.33c-3.49,0-7,0-10.46,0l-.5,0c.65-.68,1.22-1.3,1.81-1.89,1-1,2-2,3-3s2.06-2,3.07-3l8.55-8.55a.9.9,0,0,0,.29-.68c0-5,0-9.89,0-14.83a.73.73,0,0,1,.57-.84A5.55,5.55,0,0,0,85,15.94a5.7,5.7,0,0,0-11.33.43,5.37,5.37,0,0,0,2.12,4.81A19.68,19.68,0,0,0,78,22.45v.35q0,6.79,0,13.6a1.31,1.31,0,0,1-.43,1C74.76,40.19,72,43,69.2,45.76c-.25.26-.53.5-.85.81V37.81c0-.28.15-.32.36-.39A5.7,5.7,0,1,0,61.35,33a5.52,5.52,0,0,0,3.76,4.4c.37.14.45.27.45.62,0,3.62,0,7.23,0,10.85a1,1,0,0,1-.31.84c-.35.3-.65.67-1,1L53.1,61.87c-.4.4-3,2.87-3.41,3.3a1,1,0,0,0-.47.53c-.12.35-.09,20.56-.09,20.56a19.35,19.35,0,0,0,.29,2.85A67.78,67.78,0,0,0,52.15,100a4.29,4.29,0,0,1-.11,2.18,59.36,59.36,0,0,1-8,19.2,2.39,2.39,0,0,1-.25.19c-.42-1.18-.85-2.31-1.22-3.47a63.45,63.45,0,0,1-2.08-9.25c-.11-.76-.2-1.53-.25-2.3a1.39,1.39,0,0,1,.19-.64c2.23-4.62,4.41-7.22,6.11-13a30.44,30.44,0,0,0,1.39-6.65v-3.9c0-5.72,0-8.24,0-14V63.84q0-13.29,0-26.59a.83.83,0,0,1,.21-.49l3.07-3.09q5.4-5.4,10.81-10.78a1,1,0,0,0,.34-.84c0-3.45,0-6.91,0-10.36a.52.52,0,0,1,.41-.6,5.67,5.67,0,0,0,3.44-7.63A5.69,5.69,0,0,0,55.28,5.73a5.51,5.51,0,0,0,2.35,4.57,16.17,16.17,0,0,0,1.94,1s0,0,0,0c0,3.24,0,6.48,0,9.71a.83.83,0,0,1-.25.52c-.55.58-1.12,1.13-1.69,1.7L48.3,32.62l-.34.31c0-.12,0-.18,0-.23V22.2a.41.41,0,0,1,.34-.46,5.44,5.44,0,0,0,.86-.37,5.94,5.94,0,0,0,2.47-2.54A5.47,5.47,0,0,0,51.75,14a5.68,5.68,0,0,0-10.9,2.25,6,6,0,0,0,.87,3.07,5.37,5.37,0,0,0,3,2.38c.35.13.44.25.44.56s0,.35,0,.52V58.56a4,4,0,0,1,0,.43c-.13-.11-.22-.18-.3-.26Q39,53,33.25,47.16a1.13,1.13,0,0,1-.29-.72c0-3.43,0-6.85,0-10.28,0-.84,0-.84.8-1.17l.12-.06a5.7,5.7,0,0,0,3-7.2,5.69,5.69,0,0,0-11,2.72,5.55,5.55,0,0,0,3.8,4.66c.33.12.43.25.43.59q0,4.94,0,9.85v.51c-2.08,0-4.07,0-6.07,0a.71.71,0,0,1-.43-.23L14.45,36.7a.36.36,0,0,1,0-.55A5.62,5.62,0,0,0,15.32,32,5.69,5.69,0,0,0,4,33a5.53,5.53,0,0,0,1.86,4.16,5.48,5.48,0,0,0,5.58,1.19.81.81,0,0,1,1,.28q4.95,5,9.93,10a.9.9,0,0,0,.72.3q3.75,0,7.52,0a1,1,0,0,1,.63.27c2.58,2.55,5.14,5.12,7.71,7.69l5.83,5.82a1.21,1.21,0,0,1,.4,1c0,6.94,0,10.69,0,17.63,0,.74,0,1.48,0,2.23v2.85c-.43,6.25-2.91,9.49-5.07,14.51.06-1.32.05-2.66.21-4a21.55,21.55,0,0,1,1.59-5.07c.77-2.16,1.54-3.27,1.8-5.49l.08-8.06c0-5.41,0-7.63,0-13a1,1,0,0,0-.23-.59c-.38-.43-.8-.81-1.2-1.21-2.74-2.74-5.47-5.48-8.22-8.21a.76.76,0,0,0-.48-.24c-1.28,0-2.56,0-3.84,0H26.1a13.2,13.2,0,0,0-1-1.91,5.43,5.43,0,0,0-5.39-2.28,5,5,0,0,0-1.67.46,5.86,5.86,0,0,0-3,3.54A5.42,5.42,0,0,0,15.47,59a5.54,5.54,0,0,0,6.34,2.83,5.47,5.47,0,0,0,3.88-3.23c.16-.36.12-1,.84-.92a2.31,2.31,0,0,0,.46.05c.92,0,1.84-.06,2.76-.07s1.69,0,2.53,0a1.14,1.14,0,0,1,.7.3c2.54,2.51,5.05,5.05,7.59,7.56a1.13,1.13,0,0,1,.37.88c0,6.37,0,9.55,0,15.92v4.28c-.71,3.88-3.33,6.61-5.41,9.83a34.6,34.6,0,0,1-7,8.08,59.81,59.81,0,0,1-6,4.37A51,51,0,0,1,11.31,114C7.87,115.2,4.37,116.17.9,117.22c-.74.23-1,.67-.85,1.31a1.08,1.08,0,0,0,1.42.89c3.23-.92,6.47-1.83,9.68-2.84,1.84-.59,3.63-1.35,5.53-2.07A23.07,23.07,0,0,0,13,121.66a43,43,0,0,0-1,4.9c-.1.63.31,1,.93,1a.94.94,0,0,0,1.11-.86,23.37,23.37,0,0,1,3.31-9.48,17.6,17.6,0,0,1,4.5-5.1c1.58-1.16,3.26-2.18,4.85-3.31A38.52,38.52,0,0,0,37.2,98c.31-.49.65-1,1.06-1.56-.09,1-.22,1.78-.23,2.59,0,2,0,3.9,0,5.85a3.93,3.93,0,0,1-.34,1.55c-.49,1-1,2-1.62,3a65.68,65.68,0,0,1-10.86,13.76c-1.94,1.87-4,3.63-6,5.46a1,1,0,0,0-.16,1.55,1.07,1.07,0,0,0,1.53.09c1.55-1.24,3.16-2.42,4.59-3.79a66.69,66.69,0,0,0,5.37-5.66c2.1-2.54,4-5.24,6-7.91.73-1,1.31-2.09,2-3.2l.59,3.27a57.66,57.66,0,0,0,3.1,10.46.85.85,0,0,1-.1.73c-1.55,1.93-3.11,3.87-4.73,5.74-.82.95-1.81,1.76-2.66,2.68a1.56,1.56,0,0,0-.44,1.06,1.16,1.16,0,0,0,1.95.65c1.57-1.5,3.09-3.05,4.57-4.63,1-1,1.82-2.16,2.74-3.25a3.68,3.68,0,0,1,.24.39,56.62,56.62,0,0,0,4.7,7.89,1.19,1.19,0,0,0,1.64.48c.57-.36.65-1,.19-1.67-.65-1-1.4-2-2-3-1-1.69-1.82-3.45-2.8-5.13a1.85,1.85,0,0,1,.12-2.22,61.14,61.14,0,0,0,7.6-16.54c.22-.74.43-1.48.7-2.41,1.42,3,2.84,5.85,4.08,8.74a27.9,27.9,0,0,1,2.51,13.24,31.3,31.3,0,0,1-1,6.17,1.27,1.27,0,0,0,.77,1.71,1.25,1.25,0,0,0,1.56-1A30.9,30.9,0,0,0,63,124.68c0-2.06-.31-4.11-.48-6.11.05.05.19.16.31.29,2.34,2.56,4.64,5.17,7.05,7.67a40,40,0,0,0,3.63,3.12,1.18,1.18,0,0,0,1.77,0,1.23,1.23,0,0,0-.36-1.76c-.79-.66-1.58-1.32-2.34-2a80.71,80.71,0,0,1-8.87-9.52,61.92,61.92,0,0,1-8.85-15.5,2.4,2.4,0,0,1-.08-1c.07-.9.2-1.8.28-2.7.1-1.11.18-2.23.27-3.48a4.66,4.66,0,0,1,.29.51,33.55,33.55,0,0,0,7.41,10.23,66.75,66.75,0,0,0,6.76,5.44A22,22,0,0,1,79,126.16a1.23,1.23,0,0,0,1.2,1.22,1.24,1.24,0,0,0,1.14-1.3c0-.29-.11-.58-.13-.87a23.28,23.28,0,0,0-2.46-8.43c-.46-.92-1-1.81-1.57-2.81.23.08.37.13.5.19a114.76,114.76,0,0,0,14.55,5,1.48,1.48,0,0,0,1.93-.8C94.56,117.65,94.35,117.15,93.56,116.92ZM64.9,63.26a2.84,2.84,0,0,1,2.88,2.88A2.8,2.8,0,0,1,64.88,69a2.88,2.88,0,1,1,0-5.76ZM86.3,43.91a2.84,2.84,0,0,1,2.88,2.88,2.9,2.9,0,0,1-5.8,0A2.85,2.85,0,0,1,86.3,43.91ZM76.48,16.75a2.86,2.86,0,0,1,2.93-2.88,2.83,2.83,0,0,1,2.87,2.89,2.8,2.8,0,0,1-2.89,2.88A2.84,2.84,0,0,1,76.48,16.75ZM64.05,32a2.9,2.9,0,0,1,5.8,0,2.9,2.9,0,0,1-5.8,0Zm-6-26.17h0a2.7,2.7,0,0,1,.2-1.13,3,3,0,0,1,2.08-1.79,2.24,2.24,0,0,1,.58-.05,2.88,2.88,0,0,1,2.93,2.77h0a3.47,3.47,0,0,1-.08.73,2.91,2.91,0,0,1-.73,1.4,2.76,2.76,0,0,1-.93.64,2.83,2.83,0,0,1-1.18.24h0A2.91,2.91,0,0,1,58.07,5.79Zm-48.53,30A2.9,2.9,0,1,1,12.6,33,2.9,2.9,0,0,1,9.54,35.83Zm19.09-6.12a2.9,2.9,0,0,1,5.8,0,2.8,2.8,0,0,1-2.89,2.88A2.83,2.83,0,0,1,28.63,29.71Zm15-13.4a2.91,2.91,0,1,1,3,2.89A2.84,2.84,0,0,1,43.63,16.31ZM20.45,59.23a2.86,2.86,0,0,1-2.86-3,2.76,2.76,0,0,1,2.71-2.84,2.79,2.79,0,0,1,3.05,2.9A2.85,2.85,0,0,1,20.45,59.23Z"/></g></svg>