<svg viewBox="0 0 1119.12 452.41" xmlns="http://www.w3.org/2000/svg"><path d="m476.54 141.6v-69.28h52.14v15.35h-32.48v11.93h30.33v14.59h-30.33v12h34.8v15.41zm98.46 1.26c-16.11 0-33.62-5.07-33.62-27.78v-42.76h19.79v42.25c0 9.13 3.93 12.05 13.83 12.05 9.64 0 13.83-3 13.83-14.08v-40.22h19.41v40.47c-.05 24.37-17.43 30.07-33.24 30.07zm109.71 0c-12.81-.5-20.68-5.45-27.4-12.81 0 0-6.6-7.23-10.15-11.29h-6.6v22.84h-19.8v-69.28h28.43c16 0 28.16 7.36 28.16 23.34 0 7.36-3.42 13.84-10.27 18.15 2.41 2.54 6 6.22 6 6.22 3.93 4.06 6.73 5.83 15.35 8zm-37.71-54.81h-6.47v16.62h4.06c9.39 0 12.56-3.55 12.56-8.62.03-5.71-1.87-8-10.15-8zm79.37 54.69c-25.12 0-37.68-13.83-37.68-35.78 0-23.35 15.23-35.53 39.59-35.53 26 0 37.43 14.21 37.43 35.66 0 22.96-13.96 35.65-39.34 35.65zm1-55.83c-13.58 0-18.9 8.25-18.9 19.92s5.32 20.43 18.14 20.43c14.08 0 19.16-8.37 19.16-20.3s-5.56-20.05-18.38-20.05zm70.35 37.81h-3.55v16.88h-19.79v-69.28h28.42c16.11 0 28.54 10 28.54 25.76 0 16.74-12.43 26.39-33.62 26.64zm2.92-36.79h-6.47v21.57h4.06c9.64 0 12.94-5.72 12.94-11 0-6.13-2.66-10.57-10.53-10.57zm38.27 53.67v-69.28h52.15v15.35h-32.48v11.93h30.32v14.59h-30.32v12h34.76v15.41zm113.42 0-5.45-16h-23.73l-6.09 16h-19.92l26.39-69.28h26.14l23.09 69.28zm-14.59-46.31-1.9-8.76-2.29 8.76-4.95 16h13.45zm87.26 46.31-28.55-41.37 1 8.63v32.74h-19.68v-69.28h21.7l28.55 42.5-.51-7.36v-35.14h19.67v69.28zm-548.46 119.34v-69.28h19.66v53.8h29.95v15.48zm105.46 0-5.45-16h-23.69l-6.09 16h-19.92l26.39-69.28h26.14l23.09 69.28zm-14.59-46.31-1.9-8.76-2.29 8.76-5 16h13.45zm88.31 46.31-28.55-41.36 1 8.63v32.73h-19.65v-69.28h21.7l28.55 42.51-.51-7.36v-35.15h19.67v69.28zm70.93 1.06c-23.6 0-39.46-11.17-39.46-35.15 0-24.87 14.46-35.78 40.22-35.78a52.89 52.89 0 0 1 22.59 4.53l-5.33 14.08c-7.87-1.9-10.66-2.54-17.51-2.54-11.68 0-20 5.08-20 18.78s9.26 19.8 21.32 19.8a20 20 0 0 0 2.79-.13v-15.35h19.66v27.4a64.4 64.4 0 0 1 -24.28 4.36zm68.22.21c-16.11 0-33.62-5.08-33.62-27.79v-42.76h19.75v42.26c0 9.13 4 12.08 13.87 12.08 9.64 0 13.83-3.05 13.83-14.09v-40.25h19.41v40.48c0 24.36-17.38 30.07-33.24 30.07zm88.81-1.27-5.45-16h-23.73l-6.09 16h-19.92l26.39-69.28h26.12l23.09 69.28zm-14.59-46.31-1.9-8.76-2.28 8.76-4.95 16h13.45zm75.02 47.37c-23.59 0-39.46-11.17-39.46-35.15 0-24.87 14.47-35.78 40.23-35.78a52.88 52.88 0 0 1 22.58 4.57l-5.33 14.08c-7.86-1.9-10.66-2.54-17.51-2.54-11.67 0-20 5.08-20 18.78s9.27 19.8 21.32 19.8a20 20 0 0 0 2.79-.13v-15.39h19.67v27.4a64.45 64.45 0 0 1 -24.29 4.36zm35.22-1.06v-69.28h52.15v15.34h-32.48v11.92h30.32v14.59h-30.32v12.06h34.76v15.35zm-466.65 120.06c-23.6 0-39.46-11.17-39.46-35.15 0-24.87 14.46-35.78 40.22-35.78a52.73 52.73 0 0 1 22.56 4.54l-5.33 14.08c-7.86-1.9-10.65-2.54-17.51-2.54-11.67 0-20 5.08-20 18.78s9.26 19.8 21.31 19.8a20.19 20.19 0 0 0 2.8-.13v-15.35h19.66v27.4a64.44 64.44 0 0 1 -24.25 4.35zm99.16.22c-12.81-.51-20.68-5.46-27.41-12.81 0 0-6.59-7.24-10.15-11.3h-6.59v22.89h-19.8v-69.33h28.42c16 0 28.17 7.36 28.17 23.35 0 7.36-3.43 13.83-10.28 18.14 2.41 2.54 6 6.22 6 6.22 3.93 4.06 6.72 5.84 15.35 8zm-37.68-54.81h-6.47v16.59h4c9.39 0 12.57-3.56 12.57-8.63.05-5.68-1.85-7.96-10.1-7.96zm47.89 53.59v-69.33h19.67v69.33zm60.34 0h-26.77v-69.33h26.27c24.36 0 41.87 10.41 41.87 34.51s-15.86 34.82-41.37 34.82zm-.76-54h-6.47v38.6h8.38c15.09 0 20.55-6.35 20.55-18.53 0-13.32-6.72-20.07-22.46-20.07z" fill="#464646"/><path d="m200.64 268.6v127.93c0 7.42-3.74 10.38-8.25 6.63l-23.61-19.62c-4.07-3.38-7.35-11.76-7.35-18.67v-163.3c0-6.91 3.28-11 7.35-9.09l19.86 9.4v49.65c0 5.91 2.89 12.26 6.46 14.15z" fill="#d6ad5c"/><path d="m121.35 344.11-18.07-15c-3.13-2.61-5.66-9.68-5.66-15.75v-143.5c0-6.07 2.53-9.84 5.66-8.35l18.07 8.54c3.43 1.62 6.26 8.25 6.26 14.72v152.79c0 6.44-2.83 9.44-6.26 6.55z" fill="#a37a29"/><path d="m66.39 298.42-14.27-11.87c-2.49-2.06-4.5-8.16-4.5-13.58v-127.97c0-5.41 2-8.89 4.5-7.71l14.27 6.75c2.69 1.27 4.92 7 4.92 12.73v135.33c0 5.72-2.23 8.56-4.92 6.32z" fill="#523d14"/><path d="m305.49 215.16v95.72c0 7.17-4.21 10.81-9.29 8.13l-26.67-14.07c-4.59-2.43-8.31-9.86-8.31-16.54v-158.06c0-6.69 3.72-11.3 8.31-10.23l5.28 1.23v73.93c0 5.64 3.23 11.27 7.22 12.53l22.97 7.2z" fill="#ebb447"/><path d="m200.64 221.05v47.55l-5.54-2.92c-3.57-1.89-6.46-8.24-6.46-14.15v-49.65l3.75 1.77c4.51 2.13 8.25 9.97 8.25 17.4z" fill="#a37a29"/><path d="m222.84 189.19v79.72c0 6.27-3.23 9.69-7.14 7.63l-15.06-7.94v-47.55c0-7.43-3.74-15.27-8.25-17.4l-3.75-1.77v-89.88c0-5.9 2.89-10.06 6.46-9.23l15.46 3.6v69.72c0 5.06 2.59 10 5.8 11z" fill="#d6ad5c"/><path d="m152.87 243.4-16.4-8.65c-2.86-1.51-5.17-7.05-5.17-12.33v-124.86c0-5.28 2.31-9.06 5.17-8.4l16.4 3.84c3.09.71 5.64 5.87 5.64 11.45v131.79c0 5.57-2.51 8.76-5.64 7.16z" fill="#a37a29"/><path d="m394.5 243.15-29.57-9.3c-5.11-1.6-9.23-8.11-9.23-14.49v-150.66c0-6.37 4.12-11.31 9.23-11l29.57 2c5.62.38 10.29 6.28 10.29 13.1v161.2c0 6.8-4.67 10.92-10.29 9.15z" fill="#ebd6ad"/><path d="m305.49 141.51v73.65l-.49-.16-23-7.23c-4-1.26-7.22-6.89-7.22-12.53v-73.9l21.39 5c5.11 1.16 9.32 8.01 9.32 15.17z" fill="#d6ad5c"/><path d="m313 65.1v141.54c0 5.77-3.34 9.48-7.49 8.52v-73.65c0-7.16-4.21-14-9.29-15.19l-21.39-5v-59.45c0-5.64 3.23-10 7.22-9.77l23 1.56c4.33.34 7.95 5.45 7.95 11.44z" fill="#ebb447"/><path d="m222.84 120.66v68.53l-6.48-2c-3.21-1-5.8-6-5.8-11v-69.79l5.14 1.19c3.91.91 7.14 6.79 7.14 13.07z" fill="#a37a29"/><path d="m241.09 59v126.2c0 5.34-2.87 8.81-6.32 7.72l-11.93-3.75v-68.51c0-6.28-3.23-12.16-7.14-13.07l-5.14-1.19v-50c0-5.06 2.59-9 5.8-8.81l18.41 1.25c3.45.28 6.32 4.84 6.32 10.16z" fill="#d6ad5c"/></svg>