<?xml version="1.0" encoding="utf-8"?>
<!-- Generator: Adobe Illustrator 16.0.4, SVG Export Plug-In . SVG Version: 6.00 Build 0)  -->
<!DOCTYPE svg PUBLIC "-//W3C//DTD SVG 1.1//EN" "http://www.w3.org/Graphics/SVG/1.1/DTD/svg11.dtd">
<svg version="1.1" xmlns="http://www.w3.org/2000/svg" xmlns:xlink="http://www.w3.org/1999/xlink" x="0px" y="0px"
	 width="939.552px" height="304.485px" viewBox="0 0 939.552 304.485" enable-background="new 0 0 939.552 304.485"
	 xml:space="preserve">
<g id="Ebene_2">
</g>
<g id="Ebene_1">
	<g>
		<g>
			<polygon fill="#9E005D" points="315.928,195.886 339.811,154.521 363.693,195.886 			"/>
		</g>
		<g>
			<polygon fill="#C1272D" points="315.928,195.886 292.047,154.521 339.811,154.521 			"/>
		</g>
		<g>
			<polygon fill="#F15A24" points="292.047,154.521 268.165,113.156 315.928,113.156 			"/>
		</g>
		<g>
			<polygon fill="#662D91" points="339.811,237.248 315.928,195.886 363.693,195.886 			"/>
		</g>
		<g>
			<path fill="#1B1464" d="M446.422,90.954l-11.063-19.162l-23.882,41.364h20.528C436.124,105.359,440.945,97.923,446.422,90.954z"
				/>
		</g>
		<g>
			<polygon fill="#ED1C24" points="292.05,154.521 315.928,113.156 339.811,154.521 			"/>
		</g>
		<g>
			<polygon fill="#FBB03B" points="268.168,113.156 292.047,71.792 315.928,113.156 			"/>
		</g>
		<g>
			<polygon fill="#2E3192" points="411.477,113.156 387.595,71.792 435.358,71.792 			"/>
		</g>
		<g>
			<polygon fill="#22B573" points="387.595,154.521 363.712,113.156 411.473,113.156 			"/>
		</g>
		<g>
			<polygon fill="#39B54A" points="363.693,195.886 339.811,154.521 387.575,154.521 			"/>
		</g>
		<g>
			<polygon fill="#009245" points="339.815,154.521 363.697,113.156 387.578,154.521 			"/>
		</g>
		<g>
			<polygon fill="#0071BC" points="363.716,113.156 387.595,71.792 411.477,113.156 			"/>
		</g>
		<polygon fill="#FBB03B" points="260.885,71.903 260.885,100.552 268.165,113.211 292.047,71.903 		"/>
	</g>
	<g>
		<g>
			<polygon fill="#FFFFFF" points="313.762,643.218 337.645,601.854 361.526,643.218 			"/>
		</g>
		<g>
			<polygon fill="#FFFFFF" points="313.762,643.218 289.88,601.854 337.645,601.854 			"/>
		</g>
		<g>
			<polygon fill="#FFFFFF" points="289.88,601.854 265.998,560.489 313.762,560.489 			"/>
		</g>
		<g>
			<polygon fill="#FFFFFF" points="265.998,560.489 242.119,519.125 289.88,519.125 			"/>
		</g>
		<g>
			<polygon fill="#FFFFFF" points="337.645,684.58 313.762,643.218 361.526,643.218 			"/>
		</g>
		<g>
			<path fill="#FFFFFF" d="M444.131,538.071l-10.939-18.946l-23.882,41.364h20.124C432.971,552.168,437.99,544.588,444.131,538.071z
				"/>
		</g>
		<g>
			<polygon fill="#FFFFFF" points="289.884,601.854 313.762,560.489 337.645,601.854 			"/>
		</g>
		<g>
			<polygon fill="#FFFFFF" points="266.002,560.489 289.88,519.125 313.762,560.489 			"/>
		</g>
		<g>
			<polygon fill="#FFFFFF" points="409.31,560.489 385.428,519.125 433.192,519.125 			"/>
		</g>
		<g>
			<polygon fill="#FFFFFF" points="385.428,601.854 361.546,560.489 409.306,560.489 			"/>
		</g>
		<g>
			<polygon fill="#FFFFFF" points="361.526,643.218 337.645,601.854 385.409,601.854 			"/>
		</g>
		<g>
			<polygon fill="#FFFFFF" points="337.648,601.854 361.53,560.489 385.412,601.854 			"/>
		</g>
		<g>
			<polygon fill="#FFFFFF" points="361.55,560.489 385.428,519.125 409.31,560.489 			"/>
		</g>
	</g>
	<g>
		<path fill="#FFFFFF" d="M22.289,574.495c0-21.678-0.677-40.307-1.355-55.549h44.71l2.371,23.033h0.677
			c12.194-17.613,31.162-26.76,55.21-26.76c36.243,0,68.759,31.501,68.759,84.34c0,60.292-38.275,88.743-75.195,88.743
			c-19.984,0-35.565-8.129-43.017-18.967h-0.678v82.307H22.289V574.495z M73.773,613.448c0,4.064,0.339,7.789,1.016,10.838
			c3.387,13.888,15.242,24.388,30.146,24.388c22.355,0,35.565-18.63,35.565-46.743c0-26.419-11.855-46.403-34.888-46.403
			c-14.564,0-27.436,10.839-30.823,26.081c-0.677,2.709-1.016,6.097-1.016,9.146V613.448z"/>
		<path fill="#FFFFFF" d="M256.848,472.88c0,14.226-10.839,25.743-27.775,25.743c-16.258,0-27.097-11.518-26.758-25.743
			c-0.338-14.903,10.5-26.081,27.097-26.081C246.009,446.799,256.509,457.977,256.848,472.88z M203.669,684.578V518.946h51.484
			v165.632H203.669z"/>
		<path fill="#FFFFFF" d="M519.682,649.689c-24.049,0-45.05-10.16-46.744-31.499h100.276c-0.212-3.195-0.329-6.403-0.329-9.62
			c0-13.008,1.761-25.883,5.122-38.289c-7.661-30.201-29.184-55.062-70.521-55.062c-57.581,0-83.662,46.404-83.662,88.404
			c0,51.823,32.178,84.341,88.404,84.341c22.355,0,43.018-3.387,59.953-10.162l-6.773-34.887
			C551.52,647.318,537.295,649.689,519.682,649.689z M504.439,549.43c23.709,0,29.129,21,29.129,33.533H472.6
			C473.954,569.076,482.762,549.43,504.439,549.43z"/>
		<path fill="#FFFFFF" d="M745.682,518.946c-2.371,26.081-4.742,72.824-4.742,108.051c0,18.628,6.436,23.37,15.582,22.692
			l-3.049,35.904c-2.709,1.355-10.84,2.709-17.951,2.709c-19.309,0-31.162-10.16-35.904-30.145h-0.678
			c-11.855,19.984-31.162,30.145-53.178,30.145c-38.275,0-69.098-32.178-69.098-82.983c0-55.889,37.936-90.1,75.193-90.1
			c19.307,0,35.904,8.13,45.389,25.404h1.355c1.016-8.129,2.371-15.242,4.064-21.678H745.682z M659.986,647.658
			c14.904,0,26.76-14.565,30.146-30.823c0.678-5.758,1.016-10.5,1.016-16.598c0-5.419,0-9.822-0.678-13.887
			c-3.047-18.969-14.564-31.84-29.129-31.84c-19.984,0-32.516,22.018-32.516,48.098C628.826,628.35,641.697,647.658,659.986,647.658
			z"/>
		<path fill="#FFFFFF" d="M918.013,631.399c0,21.679,0.678,39.29,1.355,53.179h-44.711l-2.371-23.371h-1.016
			c-6.436,10.16-22.018,27.096-51.824,27.096c-33.533,0-58.258-21-58.258-72.146v-97.211h51.822v89.082
			c0,24.049,7.791,38.614,25.742,38.614c14.227,0,22.355-9.824,25.742-17.952c1.355-3.049,1.693-7.113,1.693-11.178v-98.566h51.824
			V631.399z"/>
	</g>
	<g>
		<path fill="#4D4D4D" d="M22.289,127.517c0-21.678-0.677-40.307-1.355-55.549h44.71l2.371,23.033h0.677
			c12.194-17.613,31.162-26.76,55.21-26.76c36.243,0,68.759,31.501,68.759,84.339c0,60.293-38.275,88.744-75.195,88.744
			c-19.984,0-35.565-8.129-43.017-18.967h-0.678v82.307H22.289V127.517z M73.773,166.469c0,4.064,0.339,7.789,1.016,10.838
			c3.387,13.889,15.242,24.389,30.146,24.389c22.355,0,35.565-18.631,35.565-46.744c0-26.418-11.855-46.403-34.888-46.403
			c-14.564,0-27.436,10.839-30.823,26.081c-0.677,2.709-1.016,6.097-1.016,9.146V166.469z"/>
		<path fill="#4D4D4D" d="M565.813,197.625c-12.107,3.312-24.774,5.087-39.966,5.087c-24.049,0-45.05-10.16-46.744-31.5h80.739
			c-0.412-3.943-0.624-7.938-0.624-11.976c0-21.115,5.784-41.083,15.83-58.382c-11.328-19.14-30.986-32.613-61.396-32.613
			c-57.581,0-83.662,46.404-83.662,88.404c0,51.824,32.178,84.342,88.404,84.342c22.355,0,43.018-3.387,59.953-10.162l-2.21-11.382
			C571.984,212.576,568.512,205.27,565.813,197.625z M510.605,102.452c23.709,0,29.129,21,29.129,33.533h-60.969
			C480.12,122.098,488.928,102.452,510.605,102.452z"/>
		<path fill="#4D4D4D" d="M735.848,71.968c-2.371,26.081-4.742,72.824-4.742,108.05c0,18.629,6.436,23.371,15.582,22.693
			l-3.049,35.904c-2.709,1.355-10.84,2.709-17.951,2.709c-19.309,0-31.162-10.16-35.904-30.145h-0.678
			c-11.855,19.984-31.162,30.145-53.178,30.145c-38.275,0-69.098-32.178-69.098-82.984c0-55.888,37.936-90.099,75.193-90.099
			c19.307,0,35.904,8.13,45.389,25.404h1.355c1.016-8.129,2.371-15.242,4.064-21.678H735.848z M650.152,200.68
			c14.904,0,26.76-14.566,30.146-30.824c0.678-5.758,1.016-10.5,1.016-16.598c0-5.418,0-9.822-0.678-13.886
			c-3.047-18.969-14.564-31.84-29.129-31.84c-19.984,0-32.516,22.018-32.516,48.097C618.992,181.372,631.863,200.68,650.152,200.68z
			"/>
		<path fill="#4D4D4D" d="M907.179,184.42c0,21.68,0.678,39.291,1.355,53.18h-44.711l-2.371-23.371h-1.016
			c-6.436,10.16-22.018,27.096-51.824,27.096c-33.533,0-58.258-21-58.258-72.146v-97.21h51.822v89.082
			c0,24.049,7.791,38.615,25.742,38.615c14.227,0,22.355-9.824,25.742-17.953c1.355-3.049,1.693-7.113,1.693-11.178V71.968h51.824
			V184.42z"/>
		<path fill="#4D4D4D" d="M227.552,81.569c-9.072,0-17.585-2.806-24.716-7.575V237.6h51.484V72.901
			c-0.236,0.055-0.475,0.102-0.711,0.155C246.215,78.392,237.201,81.569,227.552,81.569z"/>
		<path fill="#4D4D4D" d="M255.848,48.157c0,14.227-10.839,25.744-27.775,25.744c-16.258,0-27.096-11.518-26.758-25.744
			c-0.338-14.903,10.5-26.081,27.098-26.081C245.009,22.076,255.509,33.254,255.848,48.157z"/>
	</g>
</g>
</svg>
